<svg width="192" height="35" viewBox="0 0 192 35" fill="none" xmlns="http://www.w3.org/2000/svg">
<path d="M41.6648 6.17277H51.4268C53.564 6.12918 55.6817 6.58602 57.6108 7.50678C59.333 8.33634 60.7817 9.64168 61.7856 11.2685C62.7609 12.9911 63.2735 14.9369 63.2735 16.9164C63.2735 18.8959 62.7609 20.8417 61.7856 22.5643C60.7817 24.1911 59.333 25.4964 57.6108 26.326C55.6812 27.2455 53.5638 27.7023 51.4268 27.66H41.6648V6.17277ZM51.1811 23.577C53.3288 23.577 55.0391 22.9784 56.3119 21.7812C57.5847 20.584 58.2238 18.9638 58.2292 16.9204C58.2292 14.8753 57.5901 13.2551 56.3119 12.0597C55.0337 10.8643 53.3234 10.2657 51.1811 10.2639H46.6363V23.5878L51.1811 23.577Z" fill="color"/>
<path d="M82.7678 20.7537H70.273C70.4707 21.7398 71.0427 22.6108 71.8689 23.1841C72.7933 23.8035 73.8895 24.1154 75.0014 24.0753C75.7809 24.0892 76.5563 23.9592 77.2887 23.6918C77.982 23.416 78.6129 23.0036 79.1439 22.4793L81.6931 25.2418C80.1376 27.0223 77.8657 27.9125 74.8772 27.9125C73.1677 27.9487 71.474 27.5785 69.9354 26.8324C68.5645 26.162 67.4139 25.1135 66.6193 23.8106C65.8317 22.4831 65.4279 20.9631 65.4527 19.4197C65.4323 17.8838 65.831 16.3714 66.6058 15.045C67.3586 13.7594 68.4532 12.7077 69.768 12.0071C71.1404 11.298 72.6613 10.9241 74.206 10.9161C75.7508 10.9082 77.2754 11.2663 78.6551 11.9612C79.9485 12.6425 81.0189 13.681 81.739 14.9532C82.508 16.3365 82.8949 17.8996 82.8596 19.4818C82.8596 19.5278 82.8299 19.9571 82.7678 20.7537ZM71.5611 15.4447C70.8106 16.0841 70.3285 16.9827 70.2109 17.9615H78.3472C78.2221 16.9889 77.7411 16.0971 76.997 15.4582C76.2403 14.8291 75.2804 14.4969 74.2966 14.5239C73.3034 14.49 72.3316 14.8172 71.5611 15.4447Z" fill="color"/>
<path d="M102.138 11.1445L95.1682 27.6603H90.2264L83.2891 11.1445H88.2308L92.8053 22.381L97.5338 11.1445H102.138Z" fill="color"/>
<path d="M104.101 4.88281H108.892V27.6608H104.101V4.88281Z" fill="color"/>
<path d="M113.588 8.07336C113.326 7.83023 113.118 7.53581 112.975 7.20849C112.832 6.88116 112.759 6.52796 112.759 6.17092C112.759 5.81388 112.832 5.46067 112.975 5.13334C113.118 4.80601 113.326 4.5116 113.588 4.26847C114.18 3.74001 114.955 3.46468 115.748 3.50155C116.535 3.46419 117.307 3.72667 117.908 4.23606C118.173 4.46321 118.385 4.74608 118.527 5.06446C118.67 5.38284 118.741 5.72886 118.735 6.07775C118.745 6.44779 118.677 6.8158 118.534 7.15748C118.392 7.49915 118.178 7.80672 117.908 8.05986C117.304 8.56143 116.544 8.83597 115.759 8.83597C114.974 8.83597 114.213 8.56143 113.609 8.05986L113.588 8.07336ZM113.342 11.1437H118.132V27.6595H113.342V11.1437Z" fill="color"/>
<path d="M139.612 11.1452V24.8985C139.612 27.9265 138.824 30.1769 137.249 31.6495C135.674 33.1221 133.371 33.8584 130.341 33.8584C128.807 33.8666 127.279 33.6704 125.796 33.2751C124.513 32.9577 123.305 32.3866 122.245 31.5955L124.136 28.1579C124.92 28.7775 125.815 29.2413 126.774 29.5243C127.806 29.8563 128.882 30.0266 129.966 30.0292C131.624 30.0292 132.847 29.6557 133.636 28.9086C134.424 28.1615 134.819 27.0309 134.819 25.5168V24.812C133.569 26.1839 131.829 26.8689 129.599 26.8671C128.151 26.8833 126.723 26.541 125.44 25.8706C124.203 25.2266 123.167 24.2551 122.445 23.0622C121.721 21.7899 121.341 20.3512 121.341 18.8873C121.341 17.4235 121.721 15.9848 122.445 14.7125C123.167 13.5195 124.203 12.548 125.44 11.904C126.722 11.2315 128.151 10.8882 129.599 10.9049C131.995 10.9049 133.817 11.6925 135.064 13.2677V11.1506L139.612 11.1452ZM133.671 21.8119C134.447 21.0338 134.883 19.9796 134.883 18.8806C134.883 17.7815 134.447 16.7273 133.671 15.9493C132.817 15.1858 131.699 14.784 130.555 14.8286C129.406 14.7858 128.285 15.1872 127.425 15.9493C127.036 16.3318 126.726 16.788 126.515 17.2913C126.304 17.7946 126.196 18.3348 126.196 18.8806C126.196 19.4263 126.304 19.9666 126.515 20.4698C126.726 20.9731 127.036 21.4293 127.425 21.8119C128.284 22.5752 129.406 22.9767 130.555 22.9325C131.7 22.9786 132.817 22.5766 133.671 21.8119Z" fill="color"/>
<path d="M159.055 12.741C160.315 13.9688 160.945 15.7907 160.945 18.2067V27.6582H156.165V18.9439C156.165 17.6351 155.879 16.6575 155.307 16.0112C154.734 15.3649 153.905 15.0427 152.819 15.0445C151.613 15.0445 150.651 15.418 149.933 16.1652C149.217 16.9105 148.853 18.0231 148.853 19.4948V27.6608H144.07V4.88281H148.861V12.8653C149.513 12.2184 150.298 11.7209 151.161 11.407C152.105 11.0616 153.103 10.8896 154.108 10.8993C156.154 10.8993 157.803 11.5132 159.055 12.741Z" fill="color"/>
<path d="M175.935 26.8603C175.413 27.2316 174.825 27.4976 174.201 27.6435C173.495 27.8236 172.77 27.9143 172.041 27.9135C170.077 27.9135 168.557 27.4121 167.483 26.4094C166.408 25.4066 165.868 23.9331 165.862 21.9888V15.1972H163.316V11.5139H165.862V7.49023H170.666V11.5139H174.779V15.1972H170.666V21.9186C170.626 22.5087 170.821 23.0908 171.207 23.5388C171.405 23.7346 171.643 23.8863 171.905 23.984C172.166 24.0817 172.446 24.1233 172.724 24.1059C173.42 24.1269 174.101 23.9108 174.658 23.4929L175.935 26.8603Z" fill="color"/>
<path d="M180.172 27.3981C179.066 27.1456 178.008 26.7161 177.04 26.1262L178.636 22.6832C179.465 23.1954 180.365 23.5838 181.306 23.8363C182.304 24.1265 183.337 24.2765 184.377 24.2819C186.402 24.2819 187.415 23.7805 187.415 22.7777C187.415 22.306 187.138 21.9676 186.586 21.7624C185.757 21.4998 184.904 21.3252 184.039 21.2412C182.909 21.0831 181.791 20.8476 180.693 20.5364C179.82 20.2738 179.032 19.7868 178.406 19.1241C177.761 18.449 177.439 17.4867 177.439 16.2373C177.426 15.2366 177.744 14.2597 178.344 13.4586C179.028 12.5919 179.944 11.9366 180.985 11.5683C182.297 11.0924 183.686 10.8635 185.081 10.8932C186.254 10.8948 187.423 11.0233 188.568 11.2766C189.574 11.4777 190.542 11.8348 191.438 12.3352L189.84 15.7485C188.387 14.9312 186.745 14.5085 185.079 14.5225C184.056 14.5225 183.289 14.6657 182.778 14.9519C182.265 15.2381 182.011 15.6054 182.011 16.0564C182.011 16.5677 182.287 16.9277 182.84 17.1365C183.699 17.4126 184.583 17.6078 185.478 17.7198C186.597 17.8927 187.705 18.1335 188.794 18.4408C189.653 18.6967 190.428 19.1789 191.036 19.837C191.679 20.5085 192 21.4482 192 22.6562C192.008 23.6447 191.679 24.6065 191.068 25.3836C190.366 26.244 189.434 26.8881 188.381 27.2415C187.035 27.7077 185.617 27.9308 184.193 27.9004C182.837 27.9036 181.486 27.7348 180.172 27.3981Z" fill="color"/>
<path d="M17.2827 0H0V34.5654H17.2827C21.8663 34.5654 26.2623 32.7445 29.5034 29.5034C32.7445 26.2623 34.5654 21.8663 34.5654 17.2827C34.5654 12.699 32.7445 8.30311 29.5034 5.06198C26.2623 1.82085 21.8663 0 17.2827 0ZM24.7061 19.7428L16.5779 29.1402C16.1801 29.601 15.6915 29.9747 15.1426 30.238C14.5937 30.5013 13.9964 30.6484 13.388 30.6702C12.7797 30.692 12.1734 30.588 11.6071 30.3647C11.0407 30.1414 10.5266 29.8036 10.0969 29.3725C9.68592 28.9617 9.35992 28.474 9.13751 27.9372C8.9151 27.4004 8.80062 26.8251 8.80062 26.244C8.80062 25.663 8.9151 25.0876 9.13751 24.5508C9.35992 24.0141 9.68592 23.5264 10.0969 23.1156L12.7379 20.4719C13.1488 20.0611 13.4748 19.5734 13.6972 19.0366C13.9197 18.4998 14.0341 17.9245 14.0341 17.3434C14.0341 16.7624 13.9197 16.1871 13.6972 15.6503C13.4748 15.1135 13.1488 14.6258 12.7379 14.215L10.0699 11.547C9.65883 11.136 9.33278 10.6481 9.11033 10.1111C8.88788 9.57404 8.77338 8.99847 8.77338 8.41721C8.77338 7.83595 8.88788 7.26038 9.11033 6.72337C9.33278 6.18636 9.65883 5.69842 10.0699 5.28742L10.1671 5.19291C10.5852 4.77459 11.083 4.44439 11.631 4.22183C12.1791 3.99927 12.7661 3.88888 13.3576 3.89719C13.949 3.9055 14.5327 4.03234 15.0743 4.2702C15.6158 4.50807 16.1041 4.85212 16.5104 5.28202L24.5684 13.8099C25.3242 14.6045 25.7579 15.6515 25.7853 16.7478C25.8128 17.844 25.432 18.9114 24.7169 19.7428H24.7061Z" fill="#8E408E"/>
</svg>
