<svg width="35" height="35" viewBox="0 0 35 35" fill="none" xmlns="http://www.w3.org/2000/svg">
<path d="M17.2827 0H0V34.5654H17.2827C21.8663 34.5654 26.2623 32.7445 29.5034 29.5034C32.7445 26.2623 34.5654 21.8663 34.5654 17.2827C34.5654 12.699 32.7445 8.30311 29.5034 5.06198C26.2623 1.82085 21.8663 0 17.2827 0ZM24.7061 19.7428L16.5779 29.1402C16.1801 29.601 15.6915 29.9747 15.1426 30.238C14.5937 30.5013 13.9964 30.6484 13.388 30.6702C12.7797 30.692 12.1734 30.588 11.6071 30.3647C11.0407 30.1414 10.5266 29.8036 10.0969 29.3725C9.68592 28.9617 9.35992 28.474 9.13751 27.9372C8.9151 27.4004 8.80062 26.8251 8.80062 26.244C8.80062 25.663 8.9151 25.0876 9.13751 24.5508C9.35992 24.0141 9.68592 23.5264 10.0969 23.1156L12.7379 20.4719C13.1488 20.0611 13.4748 19.5734 13.6972 19.0366C13.9197 18.4998 14.0341 17.9245 14.0341 17.3434C14.0341 16.7624 13.9197 16.1871 13.6972 15.6503C13.4748 15.1135 13.1488 14.6258 12.7379 14.215L10.0699 11.547C9.65883 11.136 9.33278 10.6481 9.11033 10.1111C8.88788 9.57404 8.77338 8.99847 8.77338 8.41721C8.77338 7.83595 8.88788 7.26038 9.11033 6.72337C9.33278 6.18636 9.65883 5.69842 10.0699 5.28742L10.1671 5.19291C10.5852 4.77459 11.083 4.44439 11.631 4.22183C12.1791 3.99927 12.7661 3.88888 13.3576 3.89719C13.949 3.9055 14.5327 4.03234 15.0743 4.2702C15.6158 4.50807 16.1041 4.85212 16.5104 5.28202L24.5684 13.8099C25.3242 14.6045 25.7579 15.6515 25.7853 16.7478C25.8128 17.844 25.432 18.9114 24.7169 19.7428H24.7061Z" fill="#8E408E"/>
</svg>
